<svg width="30" height="30" viewBox="0 0 30 30" fill="none" xmlns="http://www.w3.org/2000/svg">
<g id="clarity:no-access-solid" clip-path="url(#clip0_252_87)">
<path id="Vector" d="M14.9998 1.66663C12.3628 1.66663 9.78489 2.44861 7.59224 3.9137C5.39958 5.37878 3.69062 7.46116 2.68145 9.89751C1.67228 12.3339 1.40824 15.0147 1.92271 17.6012C2.43718 20.1876 3.70705 22.5634 5.57175 24.428C7.43645 26.2927 9.81223 27.5626 12.3986 28.0771C14.9851 28.5916 17.6659 28.3275 20.1023 27.3184C22.5386 26.3092 24.621 24.6002 26.0861 22.4076C27.5512 20.2149 28.3332 17.637 28.3332 15C28.3332 11.4637 26.9284 8.07235 24.4279 5.57187C21.9274 3.07138 18.5361 1.66663 14.9998 1.66663ZM24.2915 16.6666H5.70818C5.61516 16.6666 5.52305 16.6483 5.43711 16.6127C5.35117 16.5771 5.27308 16.5249 5.20731 16.4592C5.14153 16.3934 5.08936 16.3153 5.05376 16.2294C5.01816 16.1434 4.99984 16.0513 4.99984 15.9583V14.0416C4.99984 13.8538 5.07447 13.6736 5.20731 13.5408C5.34015 13.4079 5.52031 13.3333 5.70818 13.3333H24.2915C24.4794 13.3333 24.6595 13.4079 24.7924 13.5408C24.9252 13.6736 24.9998 13.8538 24.9998 14.0416V15.95C25.0009 16.0437 24.9834 16.1367 24.9483 16.2236C24.9132 16.3105 24.8612 16.3896 24.7953 16.4562C24.7295 16.5229 24.651 16.5758 24.5645 16.6119C24.478 16.648 24.3852 16.6666 24.2915 16.6666Z" fill="white"/>
</g>
<defs>
<clipPath id="clip0_252_87">
<rect width="30" height="30" fill="white"/>
</clipPath>
</defs>
</svg>
