<svg width="440" height="86" viewBox="0 0 440 86" fill="none" xmlns="http://www.w3.org/2000/svg">
<path d="M124.622 22.876C124.91 22.336 125.396 21.958 126.08 21.742C126.764 21.526 127.628 21.418 128.672 21.418C129.716 21.418 130.544 21.508 131.156 21.688C131.768 21.868 132.236 22.084 132.56 22.336C132.884 22.588 133.136 22.948 133.316 23.416C133.496 24.028 133.586 24.964 133.586 26.224V56.194C133.586 57.022 133.55 57.652 133.478 58.084C133.442 58.48 133.28 58.948 132.992 59.488C132.488 60.46 131.084 60.946 128.78 60.946C126.26 60.946 124.784 60.28 124.352 58.948C124.136 58.336 124.028 57.4 124.028 56.14V45.178H109.718V56.194C109.718 57.022 109.682 57.652 109.61 58.084C109.574 58.48 109.412 58.948 109.124 59.488C108.62 60.46 107.216 60.946 104.912 60.946C102.392 60.946 100.916 60.28 100.484 58.948C100.268 58.336 100.16 57.4 100.16 56.14V26.17C100.16 25.342 100.178 24.73 100.214 24.334C100.286 23.902 100.466 23.416 100.754 22.876C101.258 21.904 102.662 21.418 104.966 21.418C107.486 21.418 108.98 22.084 109.448 23.416C109.628 24.028 109.718 24.964 109.718 26.224V37.24H124.028V26.17C124.028 25.342 124.046 24.73 124.082 24.334C124.154 23.902 124.334 23.416 124.622 22.876ZM165.35 43.396C165.35 45.592 164.792 47.23 163.676 48.31C162.596 49.354 161.39 49.876 160.058 49.876H147.26C147.26 50.884 147.854 51.73 149.042 52.414C150.23 53.098 151.418 53.44 152.606 53.44C154.694 53.44 156.332 53.224 157.52 52.792L158.114 52.576C158.978 52.18 159.698 51.982 160.274 51.982C161.426 51.982 162.416 52.792 163.244 54.412C163.712 55.384 163.946 56.212 163.946 56.896C163.946 60.1 160.112 61.702 152.444 61.702C149.78 61.702 147.404 61.252 145.316 60.352C143.264 59.416 141.662 58.192 140.51 56.68C138.242 53.764 137.108 50.506 137.108 46.906C137.108 42.37 138.566 38.752 141.482 36.052C144.434 33.316 148.106 31.948 152.498 31.948C157.502 31.948 161.174 33.712 163.514 37.24C164.738 39.112 165.35 41.164 165.35 43.396ZM153.956 44.962C155.324 44.962 156.008 44.386 156.008 43.234C156.008 42.406 155.684 41.74 155.036 41.236C154.424 40.732 153.524 40.48 152.336 40.48C151.184 40.48 150.032 40.966 148.88 41.938C147.728 42.874 147.152 43.882 147.152 44.962H153.956ZM187.341 35.566C187.557 33.55 188.979 32.542 191.607 32.542C193.011 32.542 194.055 32.65 194.739 32.866C195.423 33.082 195.891 33.46 196.143 34C196.431 34.54 196.593 35.026 196.629 35.458C196.701 35.854 196.737 36.466 196.737 37.294V56.194C196.737 57.022 196.701 57.652 196.629 58.084C196.593 58.48 196.449 58.948 196.197 59.488C195.693 60.424 194.451 60.892 192.471 60.892C190.527 60.892 189.213 60.658 188.529 60.19C187.881 59.686 187.503 58.966 187.395 58.03C186.063 59.938 183.831 60.892 180.699 60.892C177.603 60.892 174.723 59.47 172.059 56.626C169.395 53.782 168.063 50.488 168.063 46.744C168.063 42.964 169.395 39.67 172.059 36.862C174.759 34.018 177.711 32.596 180.915 32.596C182.139 32.596 183.255 32.812 184.263 33.244C185.271 33.676 185.973 34.09 186.369 34.486C186.765 34.846 187.089 35.206 187.341 35.566ZM177.513 46.798C177.513 47.986 177.981 49.066 178.917 50.038C179.853 50.974 180.987 51.442 182.319 51.442C183.651 51.442 184.749 50.956 185.613 49.984C186.513 49.012 186.963 47.95 186.963 46.798C186.963 45.61 186.531 44.512 185.667 43.504C184.839 42.496 183.705 41.992 182.265 41.992C180.861 41.992 179.709 42.496 178.809 43.504C177.945 44.512 177.513 45.61 177.513 46.798ZM201.041 23.902C201.041 23.074 201.059 22.462 201.095 22.066C201.167 21.634 201.329 21.148 201.581 20.608C202.085 19.636 203.489 19.15 205.793 19.15C207.989 19.15 209.357 19.636 209.897 20.608C210.185 21.148 210.347 21.634 210.383 22.066C210.455 22.498 210.491 23.128 210.491 23.956V48.958C210.491 50.254 210.599 51.082 210.815 51.442C211.031 51.766 211.499 51.928 212.219 51.928C212.975 51.928 213.479 51.964 213.731 52.036C213.983 52.072 214.289 52.216 214.649 52.468C215.369 52.936 215.729 54.214 215.729 56.302C215.729 58.57 215.369 59.956 214.649 60.46C213.713 61.108 211.481 61.216 207.953 60.784C205.181 60.424 203.381 59.506 202.553 58.03C201.545 56.266 201.041 53.458 201.041 49.606V23.902ZM233.069 42.1L229.559 41.884V49.336C229.559 50.308 229.703 51.01 229.991 51.442C230.315 51.874 230.891 52.09 231.719 52.09C232.583 52.09 233.231 52.126 233.663 52.198C234.131 52.234 234.617 52.396 235.121 52.684C235.949 53.152 236.363 54.358 236.363 56.302C236.363 58.57 235.859 59.956 234.851 60.46C234.311 60.712 233.825 60.874 233.393 60.946C232.997 60.982 232.403 61 231.611 61C227.867 61 225.023 60.154 223.079 58.462C221.135 56.77 220.163 53.908 220.163 49.876V41.884C219.479 41.992 218.741 42.046 217.949 42.046C217.157 42.046 216.491 41.74 215.951 41.128C215.447 40.516 215.195 39.472 215.195 37.996C215.195 36.52 215.285 35.458 215.465 34.81C215.645 34.126 215.897 33.64 216.221 33.352C216.797 32.884 217.517 32.65 218.381 32.65L220.163 32.866V27.304C220.163 26.476 220.181 25.864 220.217 25.468C220.289 25.072 220.469 24.64 220.757 24.172C221.225 23.272 222.611 22.822 224.915 22.822C227.363 22.822 228.821 23.488 229.289 24.82C229.469 25.396 229.559 26.314 229.559 27.574V32.866C231.143 32.722 232.331 32.65 233.123 32.65C233.951 32.65 234.563 32.686 234.959 32.758C235.391 32.794 235.877 32.956 236.417 33.244C237.353 33.712 237.821 35.098 237.821 37.402C237.821 39.67 237.335 41.056 236.363 41.56C235.823 41.812 235.337 41.974 234.905 42.046C234.509 42.082 233.897 42.1 233.069 42.1ZM256.571 32.65C260.171 32.65 263.159 34.018 265.535 36.754C267.947 39.49 269.153 42.838 269.153 46.798V56.302C269.153 57.13 269.117 57.76 269.045 58.192C269.009 58.588 268.847 59.056 268.559 59.596C268.091 60.532 266.705 61 264.401 61C262.205 61 260.837 60.532 260.297 59.596C260.009 59.056 259.829 58.57 259.757 58.138C259.721 57.706 259.703 57.058 259.703 56.194V46.744C259.703 45.268 259.289 44.116 258.461 43.288C257.633 42.46 256.571 42.046 255.275 42.046C254.015 42.046 252.899 42.442 251.927 43.234C250.955 43.99 250.397 44.854 250.253 45.826V56.302C250.253 57.13 250.217 57.76 250.145 58.192C250.109 58.588 249.947 59.056 249.659 59.596C249.191 60.532 247.805 61 245.501 61C243.233 61 241.847 60.514 241.343 59.542C241.091 59.002 240.929 58.534 240.857 58.138C240.821 57.742 240.803 57.112 240.803 56.248V23.956C240.803 23.128 240.821 22.516 240.857 22.12C240.929 21.688 241.091 21.22 241.343 20.716C241.847 19.744 243.251 19.258 245.555 19.258C247.823 19.258 249.191 19.744 249.659 20.716C249.947 21.256 250.109 21.742 250.145 22.174C250.217 22.57 250.253 23.182 250.253 24.01V35.944C252.053 33.748 254.159 32.65 256.571 32.65ZM329.222 22.93C329.51 23.47 329.672 23.956 329.708 24.388C329.78 24.82 329.816 25.45 329.816 26.278V56.248C329.816 58.732 329.132 60.19 327.764 60.622C327.08 60.838 326.216 60.946 325.172 60.946C324.128 60.946 323.3 60.856 322.688 60.676C322.076 60.496 321.608 60.28 321.284 60.028C320.96 59.776 320.708 59.416 320.528 58.948C320.348 58.336 320.258 57.4 320.258 56.14V38.05C319.358 39.166 318.044 40.948 316.316 43.396C314.588 45.808 313.49 47.32 313.022 47.932C312.554 48.544 312.23 48.976 312.05 49.228C311.87 49.444 311.42 49.768 310.7 50.2C310.016 50.596 309.26 50.794 308.432 50.794C307.64 50.794 306.902 50.614 306.218 50.254C305.57 49.858 305.102 49.48 304.814 49.12L304.382 48.526C303.662 47.626 302.24 45.718 300.116 42.802C297.992 39.85 296.84 38.266 296.66 38.05V56.248C296.66 57.076 296.624 57.706 296.552 58.138C296.516 58.534 296.354 58.984 296.066 59.488C295.526 60.46 294.122 60.946 291.854 60.946C289.658 60.946 288.29 60.46 287.75 59.488C287.462 58.984 287.282 58.516 287.21 58.084C287.174 57.652 287.156 57.004 287.156 56.14V26.17C287.156 25.342 287.174 24.73 287.21 24.334C287.282 23.902 287.462 23.416 287.75 22.876C288.29 21.94 289.694 21.472 291.962 21.472C292.934 21.472 293.762 21.598 294.446 21.85C295.166 22.066 295.634 22.3 295.85 22.552L296.174 22.876L308.432 38.968C314.552 30.868 318.638 25.522 320.69 22.93C321.302 21.958 322.742 21.472 325.01 21.472C327.314 21.472 328.718 21.958 329.222 22.93ZM352.61 35.566C352.826 33.55 354.248 32.542 356.876 32.542C358.28 32.542 359.324 32.65 360.008 32.866C360.692 33.082 361.16 33.46 361.412 34C361.7 34.54 361.862 35.026 361.898 35.458C361.97 35.854 362.006 36.466 362.006 37.294V56.194C362.006 57.022 361.97 57.652 361.898 58.084C361.862 58.48 361.718 58.948 361.466 59.488C360.962 60.424 359.72 60.892 357.74 60.892C355.796 60.892 354.482 60.658 353.798 60.19C353.15 59.686 352.772 58.966 352.664 58.03C351.332 59.938 349.1 60.892 345.968 60.892C342.872 60.892 339.992 59.47 337.328 56.626C334.664 53.782 333.332 50.488 333.332 46.744C333.332 42.964 334.664 39.67 337.328 36.862C340.028 34.018 342.98 32.596 346.184 32.596C347.408 32.596 348.524 32.812 349.532 33.244C350.54 33.676 351.242 34.09 351.638 34.486C352.034 34.846 352.358 35.206 352.61 35.566ZM342.782 46.798C342.782 47.986 343.25 49.066 344.186 50.038C345.122 50.974 346.256 51.442 347.588 51.442C348.92 51.442 350.018 50.956 350.882 49.984C351.782 49.012 352.232 47.95 352.232 46.798C352.232 45.61 351.8 44.512 350.936 43.504C350.108 42.496 348.974 41.992 347.534 41.992C346.13 41.992 344.978 42.496 344.078 43.504C343.214 44.512 342.782 45.61 342.782 46.798ZM382.834 42.1L379.324 41.884V49.336C379.324 50.308 379.468 51.01 379.756 51.442C380.08 51.874 380.656 52.09 381.484 52.09C382.348 52.09 382.996 52.126 383.428 52.198C383.896 52.234 384.382 52.396 384.886 52.684C385.714 53.152 386.128 54.358 386.128 56.302C386.128 58.57 385.624 59.956 384.616 60.46C384.076 60.712 383.59 60.874 383.158 60.946C382.762 60.982 382.168 61 381.376 61C377.632 61 374.788 60.154 372.844 58.462C370.9 56.77 369.928 53.908 369.928 49.876V41.884C369.244 41.992 368.506 42.046 367.714 42.046C366.922 42.046 366.256 41.74 365.716 41.128C365.212 40.516 364.96 39.472 364.96 37.996C364.96 36.52 365.05 35.458 365.23 34.81C365.41 34.126 365.662 33.64 365.986 33.352C366.562 32.884 367.282 32.65 368.146 32.65L369.928 32.866V27.304C369.928 26.476 369.946 25.864 369.982 25.468C370.054 25.072 370.234 24.64 370.522 24.172C370.99 23.272 372.376 22.822 374.68 22.822C377.128 22.822 378.586 23.488 379.054 24.82C379.234 25.396 379.324 26.314 379.324 27.574V32.866C380.908 32.722 382.096 32.65 382.888 32.65C383.716 32.65 384.328 32.686 384.724 32.758C385.156 32.794 385.642 32.956 386.182 33.244C387.118 33.712 387.586 35.098 387.586 37.402C387.586 39.67 387.1 41.056 386.128 41.56C385.588 41.812 385.102 41.974 384.67 42.046C384.274 42.082 383.662 42.1 382.834 42.1ZM416.946 43.396C416.946 45.592 416.388 47.23 415.272 48.31C414.192 49.354 412.986 49.876 411.654 49.876H398.856C398.856 50.884 399.45 51.73 400.638 52.414C401.826 53.098 403.014 53.44 404.202 53.44C406.29 53.44 407.928 53.224 409.116 52.792L409.71 52.576C410.574 52.18 411.294 51.982 411.87 51.982C413.022 51.982 414.012 52.792 414.84 54.412C415.308 55.384 415.542 56.212 415.542 56.896C415.542 60.1 411.708 61.702 404.04 61.702C401.376 61.702 399 61.252 396.912 60.352C394.86 59.416 393.258 58.192 392.106 56.68C389.838 53.764 388.704 50.506 388.704 46.906C388.704 42.37 390.162 38.752 393.078 36.052C396.03 33.316 399.702 31.948 404.094 31.948C409.098 31.948 412.77 33.712 415.11 37.24C416.334 39.112 416.946 41.164 416.946 43.396ZM405.552 44.962C406.92 44.962 407.604 44.386 407.604 43.234C407.604 42.406 407.28 41.74 406.632 41.236C406.02 40.732 405.12 40.48 403.932 40.48C402.78 40.48 401.628 40.966 400.476 41.938C399.324 42.874 398.748 43.882 398.748 44.962H405.552Z" fill="#7551FF"/>
<g filter="url(#filter0_d_117_210)">
<rect x="10" y="8" width="66" height="66" rx="10" fill="white"/>
<g filter="url(#filter1_d_117_210)">
<path fill-rule="evenodd" clip-rule="evenodd" d="M23.8 43.6C23.8 45.8092 25.5908 47.6 27.8 47.6L36.4 47.6L36.4 56.2C36.4 58.4092 38.1909 60.2 40.4 60.2L45.6 60.2C47.8091 60.2 49.6 58.4092 49.6 56.2L49.6 47.6L58.2 47.6C60.4091 47.6 62.2 45.8092 62.2 43.6L62.2 38.4C62.2 36.1909 60.4091 34.4 58.2 34.4L49.6 34.4L49.6 25.8C49.6 23.5909 47.8091 21.8 45.6 21.8L40.4 21.8C38.1909 21.8 36.4 23.5909 36.4 25.8L36.4 34.4L27.8 34.4C25.5908 34.4 23.8 36.1909 23.8 38.4L23.8 43.6Z" fill="url(#paint0_linear_117_210)"/>
</g>
</g>
<path fill-rule="evenodd" clip-rule="evenodd" d="M418 24.6C418 26.6124 419.631 28.2438 421.644 28.2438L424.956 28.2438L424.956 31.5563C424.956 33.5687 426.588 35.2 428.6 35.2C430.612 35.2 432.244 33.5687 432.244 31.5563L432.244 28.2438L435.556 28.2438C437.569 28.2438 439.2 26.6124 439.2 24.6C439.2 22.5876 437.569 20.9563 435.556 20.9563L432.244 20.9563L432.244 17.6438C432.244 15.6314 430.612 14 428.6 14C426.588 14 424.956 15.6314 424.956 17.6438L424.956 20.9563L421.644 20.9563C419.631 20.9563 418 22.5876 418 24.6Z" fill="url(#paint1_linear_117_210)"/>
<defs>
<filter id="filter0_d_117_210" x="0" y="0" width="86" height="86" filterUnits="userSpaceOnUse" color-interpolation-filters="sRGB">
<feFlood flood-opacity="0" result="BackgroundImageFix"/>
<feColorMatrix in="SourceAlpha" type="matrix" values="0 0 0 0 0 0 0 0 0 0 0 0 0 0 0 0 0 0 127 0" result="hardAlpha"/>
<feOffset dy="2"/>
<feGaussianBlur stdDeviation="5"/>
<feComposite in2="hardAlpha" operator="out"/>
<feColorMatrix type="matrix" values="0 0 0 0 0 0 0 0 0 0 0 0 0 0 0 0 0 0 0.2 0"/>
<feBlend mode="normal" in2="BackgroundImageFix" result="effect1_dropShadow_117_210"/>
<feBlend mode="normal" in="SourceGraphic" in2="effect1_dropShadow_117_210" result="shape"/>
</filter>
<filter id="filter1_d_117_210" x="18.8" y="20.8" width="48.4" height="48.4" filterUnits="userSpaceOnUse" color-interpolation-filters="sRGB">
<feFlood flood-opacity="0" result="BackgroundImageFix"/>
<feColorMatrix in="SourceAlpha" type="matrix" values="0 0 0 0 0 0 0 0 0 0 0 0 0 0 0 0 0 0 127 0" result="hardAlpha"/>
<feOffset dy="4"/>
<feGaussianBlur stdDeviation="2.5"/>
<feComposite in2="hardAlpha" operator="out"/>
<feColorMatrix type="matrix" values="0 0 0 0 0 0 0 0 0 0 0 0 0 0 0 0 0 0 0.16 0"/>
<feBlend mode="normal" in2="BackgroundImageFix" result="effect1_dropShadow_117_210"/>
<feBlend mode="normal" in="SourceGraphic" in2="effect1_dropShadow_117_210" result="shape"/>
</filter>
<linearGradient id="paint0_linear_117_210" x1="28.9608" y1="55.1334" x2="61.8266" y2="26.5655" gradientUnits="userSpaceOnUse">
<stop stop-color="#977CFF"/>
<stop offset="0.505208" stop-color="#643BFF"/>
<stop offset="1" stop-color="#2200B7"/>
</linearGradient>
<linearGradient id="paint1_linear_117_210" x1="420.849" y1="32.4028" x2="438.994" y2="16.631" gradientUnits="userSpaceOnUse">
<stop stop-color="#977CFF"/>
<stop offset="0.505208" stop-color="#643BFF"/>
<stop offset="1" stop-color="#2200B7"/>
</linearGradient>
</defs>
</svg>
