<svg width="1980" height="164" viewBox="0 0 1980 164" fill="none" xmlns="http://www.w3.org/2000/svg">
<path d="M221.541 24.9986C73.5704 1.71434 -0.000261719 6.10352e-05 -0.000261719 6.10352e-05L0.000288891 164.499L1980 164.499L1980 40.9993C1980 40.9993 1858.32 10.0802 1659.63 10.0802C1365.6 10.0802 1043.99 108.526 774.573 106.335C505.152 104.145 369.512 48.2829 221.541 24.9986Z" fill="#9374FF"/>
<path opacity="0.7" d="M1819.57 43.3579C1928.47 25.4041 1900.5 29.8918 1980 11.4991L1980 164.499L-0.000488281 164.499L-0.000507425 74.9989C-0.000507425 74.9989 61.4992 47.2532 407.999 36.1763C754.499 25.0995 829.766 102.371 1167 99.4989C1504.23 96.6263 1710.68 61.3117 1819.57 43.3579Z" fill="#E9D8FD"/>
</svg>
